<svg width="89" height="21" viewBox="0 0 89 21" fill="none" xmlns="http://www.w3.org/2000/svg">
<path d="M0.0955658 1.50994H5.86426C9.54196 1.50994 12.5801 3.61863 12.5801 8.43326V9.44494C12.5801 14.2961 9.73876 16.478 5.97496 16.478H0.0955658V1.50994ZM3.31816 4.22808V13.7476H5.79046C7.88146 13.7476 9.28366 12.3947 9.28366 9.38399V8.59171C9.28366 5.58105 7.80766 4.22808 5.67976 4.22808H3.31816ZM14.2898 4.37434H16.8728L17.291 7.18999C17.783 5.27632 19.0376 4.25245 21.3131 4.25245H22.1126V7.48252H20.7842C18.1643 7.48252 17.5247 8.3845 17.5247 10.9442V16.5145H14.339V4.37434H14.2898ZM22.7522 10.6882V10.3469C22.7522 6.28801 25.3721 4.06962 28.9391 4.06962C32.5798 4.06962 35.1259 6.28801 35.1259 10.3469V10.6882C35.1259 14.674 32.6537 16.8192 28.9391 16.8192C24.9908 16.7827 22.7522 14.6862 22.7522 10.6882ZM31.8664 10.6516V10.3469C31.8664 8.09197 30.7225 6.739 28.9022 6.739C27.1187 6.739 25.9379 7.98227 25.9379 10.3469V10.6516C25.9379 12.8335 27.0818 14.0767 28.9022 14.0767C30.7225 14.0402 31.8664 12.8335 31.8664 10.6516ZM36.7987 4.37434H39.4555L39.763 6.66586C40.4026 5.13006 41.7679 4.06962 43.7851 4.06962C46.897 4.06962 48.9511 6.288 48.9511 10.3957V10.737C48.9511 14.7227 46.6756 16.8314 43.7851 16.8314C41.854 16.8314 40.5256 15.966 39.8737 14.5765V20.7075H36.7618L36.7987 4.37434ZM45.7162 10.6516V10.3835C45.7162 7.97008 44.4616 6.77556 42.7888 6.77556C41.0053 6.77556 39.8245 8.12853 39.8245 10.3835V10.6151C39.8245 12.7603 40.9684 14.1133 42.7519 14.1133C44.5846 14.0767 45.7162 12.9188 45.7162 10.6516ZM53.662 14.2718L53.3914 16.4901H50.6608V0.31543H53.7727V6.51959C54.4615 4.93503 55.8268 4.06962 57.7579 4.06962C60.6853 4.10619 62.8501 6.10517 62.8501 10.1275V10.5054C62.8501 14.5277 60.796 16.8314 57.6841 16.8314C55.63 16.7827 54.3016 15.8441 53.662 14.2718ZM59.5783 10.5054V10.2007C59.5783 7.98227 58.3606 6.739 56.6509 6.739C54.9043 6.739 53.6866 8.12853 53.6866 10.2372V10.5054C53.6866 12.7603 54.8674 14.0767 56.614 14.0767C58.4836 14.0767 59.5783 12.9188 59.5783 10.5054ZM64.2154 10.6882V10.3469C64.2154 6.28801 66.8353 4.06962 70.4023 4.06962C74.0431 4.06962 76.5892 6.28801 76.5892 10.3469V10.6882C76.5892 14.674 74.08 16.8192 70.4023 16.8192C66.454 16.7827 64.2154 14.6862 64.2154 10.6882ZM73.3543 10.6516V10.3469C73.3543 8.09197 72.2104 6.739 70.39 6.739C68.6065 6.739 67.4257 7.98227 67.4257 10.3469V10.6516C67.4257 12.8335 68.5696 14.0767 70.39 14.0767C72.2227 14.0402 73.3543 12.8335 73.3543 10.6516ZM80.7589 10.2007L76.4662 4.37434H80.1439L82.6162 8.01883L85.1254 4.37434H88.7662L84.412 10.1641L88.9999 16.4901H85.396L82.5916 12.4678L79.861 16.4901H76.0972L80.7589 10.2007Z" fill="#B7BEC9"/>
</svg>
